<svg height="8782" width="720" xmlns="http://www.w3.org/2000/svg">
<rect height="8782" fill="#555" width="720"></rect>
<text fill="#7f7" font-family="Courier New" font-size="12" xml:space="preserve">
<tspan x="10" y="26">97 megabytes installed</tspan>
<tspan x="10" y="42"></tspan>
<tspan x="10" y="58">node_modules</tspan>
<tspan x="10" y="74">├── UNMET PEER DEPENDENCY react@16.0.0-alpha.6</tspan>
<tspan x="10" y="90">└─┬ react-native@0.43.4 </tspan>
<tspan x="10" y="106">  ├── absolute-path@0.0.0 </tspan>
<tspan x="10" y="122">  ├── art@0.10.1 </tspan>
<tspan x="10" y="138">  ├── async@2.3.0 </tspan>
<tspan x="10" y="154">  ├─┬ babel-core@6.24.1 </tspan>
<tspan x="10" y="170">  │ ├─┬ babel-code-frame@6.22.0 </tspan>
<tspan x="10" y="186">  │ │ └── js-tokens@3.0.1 </tspan>
<tspan x="10" y="202">  │ ├── babel-helpers@6.24.1 </tspan>
<tspan x="10" y="218">  │ ├── babel-messages@6.23.0 </tspan>
<tspan x="10" y="234">  │ ├── babel-template@6.24.1 </tspan>
<tspan x="10" y="250">  │ ├── convert-source-map@1.5.0 </tspan>
<tspan x="10" y="266">  │ ├── json5@0.5.1 </tspan>
<tspan x="10" y="282">  │ ├─┬ minimatch@3.0.3 </tspan>
<tspan x="10" y="298">  │ │ └─┬ brace-expansion@1.1.7 </tspan>
<tspan x="10" y="314">  │ │   ├── balanced-match@0.4.2 </tspan>
<tspan x="10" y="330">  │ │   └── concat-map@0.0.1 </tspan>
<tspan x="10" y="346">  │ ├── path-is-absolute@1.0.1 </tspan>
<tspan x="10" y="362">  │ ├── private@0.1.7 </tspan>
<tspan x="10" y="378">  │ └── slash@1.0.0 </tspan>
<tspan x="10" y="394">  ├─┬ babel-generator@6.24.1 </tspan>
<tspan x="10" y="410">  │ ├─┬ detect-indent@4.0.0 </tspan>
<tspan x="10" y="426">  │ │ └─┬ repeating@2.0.1 </tspan>
<tspan x="10" y="442">  │ │   └── is-finite@1.0.2 </tspan>
<tspan x="10" y="458">  │ ├── jsesc@1.3.0 </tspan>
<tspan x="10" y="474">  │ └── trim-right@1.0.1 </tspan>
<tspan x="10" y="490">  ├── babel-plugin-external-helpers@6.22.0 </tspan>
<tspan x="10" y="506">  ├── babel-plugin-syntax-trailing-function-commas@6.22.0 </tspan>
<tspan x="10" y="522">  ├─┬ babel-plugin-transform-async-to-generator@6.16.0 </tspan>
<tspan x="10" y="538">  │ ├─┬ babel-helper-remap-async-to-generator@6.24.1 </tspan>
<tspan x="10" y="554">  │ │ └── babel-helper-function-name@6.24.1 </tspan>
<tspan x="10" y="570">  │ └── babel-plugin-syntax-async-functions@6.13.0 </tspan>
<tspan x="10" y="586">  ├─┬ babel-plugin-transform-flow-strip-types@6.22.0 </tspan>
<tspan x="10" y="602">  │ └── babel-plugin-syntax-flow@6.18.0 </tspan>
<tspan x="10" y="618">  ├─┬ babel-plugin-transform-object-rest-spread@6.23.0 </tspan>
<tspan x="10" y="634">  │ └── babel-plugin-syntax-object-rest-spread@6.13.0 </tspan>
<tspan x="10" y="650">  ├─┬ babel-polyfill@6.23.0 </tspan>
<tspan x="10" y="666">  │ └── regenerator-runtime@0.10.4 </tspan>
<tspan x="10" y="682">  ├─┬ babel-preset-es2015-node@6.1.1 </tspan>
<tspan x="10" y="698">  │ ├── babel-plugin-transform-es2015-destructuring@6.23.0 </tspan>
<tspan x="10" y="714">  │ ├── babel-plugin-transform-es2015-function-name@6.24.1 </tspan>
<tspan x="10" y="730">  │ ├─┬ babel-plugin-transform-es2015-modules-commonjs@6.24.1 </tspan>
<tspan x="10" y="746">  │ │ └── babel-plugin-transform-strict-mode@6.24.1 </tspan>
<tspan x="10" y="762">  │ ├─┬ babel-plugin-transform-es2015-parameters@6.24.1 </tspan>
<tspan x="10" y="778">  │ │ ├─┬ babel-helper-call-delegate@6.24.1 </tspan>
<tspan x="10" y="794">  │ │ │ └── babel-helper-hoist-variables@6.24.1 </tspan>
<tspan x="10" y="810">  │ │ └── babel-helper-get-function-arity@6.24.1 </tspan>
<tspan x="10" y="826">  │ ├── babel-plugin-transform-es2015-shorthand-properties@6.24.1 </tspan>
<tspan x="10" y="842">  │ ├── babel-plugin-transform-es2015-spread@6.22.0 </tspan>
<tspan x="10" y="858">  │ ├─┬ babel-plugin-transform-es2015-sticky-regex@6.24.1 </tspan>
<tspan x="10" y="874">  │ │ └── babel-helper-regex@6.24.1 </tspan>
<tspan x="10" y="890">  │ └─┬ babel-plugin-transform-es2015-unicode-regex@6.24.1 </tspan>
<tspan x="10" y="906">  │   └─┬ regexpu-core@2.0.0 </tspan>
<tspan x="10" y="922">  │     ├── regenerate@1.3.2 </tspan>
<tspan x="10" y="938">  │     ├── regjsgen@0.2.0 </tspan>
<tspan x="10" y="954">  │     └─┬ regjsparser@0.1.5 </tspan>
<tspan x="10" y="970">  │       └── jsesc@0.5.0 </tspan>
<tspan x="10" y="986">  ├─┬ babel-preset-fbjs@2.1.1 </tspan>
<tspan x="10" y="1002">  │ ├── babel-plugin-check-es2015-constants@6.22.0 </tspan>
<tspan x="10" y="1018">  │ ├── babel-plugin-syntax-class-properties@6.13.0 </tspan>
<tspan x="10" y="1034">  │ ├── babel-plugin-syntax-jsx@6.18.0 </tspan>
<tspan x="10" y="1050">  │ ├── babel-plugin-transform-class-properties@6.24.1 </tspan>
<tspan x="10" y="1066">  │ ├── babel-plugin-transform-es2015-arrow-functions@6.22.0 </tspan>
<tspan x="10" y="1082">  │ ├── babel-plugin-transform-es2015-block-scoped-functions@6.22.0 </tspan>
<tspan x="10" y="1098">  │ ├── babel-plugin-transform-es2015-block-scoping@6.24.1 </tspan>
<tspan x="10" y="1114">  │ ├─┬ babel-plugin-transform-es2015-classes@6.24.1 </tspan>
<tspan x="10" y="1130">  │ │ ├── babel-helper-define-map@6.24.1 </tspan>
<tspan x="10" y="1146">  │ │ ├── babel-helper-optimise-call-expression@6.24.1 </tspan>
<tspan x="10" y="1162">  │ │ └── babel-helper-replace-supers@6.24.1 </tspan>
<tspan x="10" y="1178">  │ ├── babel-plugin-transform-es2015-computed-properties@6.24.1 </tspan>
<tspan x="10" y="1194">  │ ├── babel-plugin-transform-es2015-for-of@6.23.0 </tspan>
<tspan x="10" y="1210">  │ ├── babel-plugin-transform-es2015-literals@6.22.0 </tspan>
<tspan x="10" y="1226">  │ ├── babel-plugin-transform-es2015-object-super@6.24.1 </tspan>
<tspan x="10" y="1242">  │ ├── babel-plugin-transform-es2015-template-literals@6.22.0 </tspan>
<tspan x="10" y="1258">  │ ├── babel-plugin-transform-es3-member-expression-literals@6.22.0 </tspan>
<tspan x="10" y="1274">  │ ├── babel-plugin-transform-es3-property-literals@6.22.0 </tspan>
<tspan x="10" y="1290">  │ ├── babel-plugin-transform-react-display-name@6.23.0 </tspan>
<tspan x="10" y="1306">  │ └─┬ babel-plugin-transform-react-jsx@6.24.1 </tspan>
<tspan x="10" y="1322">  │   └── babel-helper-builder-react-jsx@6.24.1 </tspan>
<tspan x="10" y="1338">  ├─┬ babel-preset-react-native@1.9.1 </tspan>
<tspan x="10" y="1354">  │ ├── babel-plugin-react-transform@2.0.2 </tspan>
<tspan x="10" y="1370">  │ ├── babel-plugin-transform-object-assign@6.22.0 </tspan>
<tspan x="10" y="1386">  │ ├── babel-plugin-transform-react-jsx-source@6.22.0 </tspan>
<tspan x="10" y="1402">  │ └─┬ babel-plugin-transform-regenerator@6.24.1 </tspan>
<tspan x="10" y="1418">  │   └── regenerator-transform@0.9.11 </tspan>
<tspan x="10" y="1434">  ├─┬ babel-register@6.24.1 </tspan>
<tspan x="10" y="1450">  │ ├─┬ home-or-tmp@2.0.0 </tspan>
<tspan x="10" y="1466">  │ │ └── os-homedir@1.0.2 </tspan>
<tspan x="10" y="1482">  │ └── source-map-support@0.4.14 </tspan>
<tspan x="10" y="1498">  ├─┬ babel-runtime@6.23.0 </tspan>
<tspan x="10" y="1514">  │ └── regenerator-runtime@0.10.4 </tspan>
<tspan x="10" y="1530">  ├─┬ babel-traverse@6.24.1 </tspan>
<tspan x="10" y="1546">  │ ├── globals@9.17.0 </tspan>
<tspan x="10" y="1562">  │ └── invariant@2.2.2 </tspan>
<tspan x="10" y="1578">  ├─┬ babel-types@6.24.1 </tspan>
<tspan x="10" y="1594">  │ ├── esutils@2.0.2 </tspan>
<tspan x="10" y="1610">  │ └── to-fast-properties@1.0.2 </tspan>
<tspan x="10" y="1626">  ├── babylon@6.17.0 </tspan>
<tspan x="10" y="1642">  ├── base64-js@1.2.0 </tspan>
<tspan x="10" y="1658">  ├─┬ bser@1.0.3 </tspan>
<tspan x="10" y="1674">  │ └── node-int64@0.4.0 </tspan>
<tspan x="10" y="1690">  ├─┬ chalk@1.1.3 </tspan>
<tspan x="10" y="1706">  │ ├── ansi-styles@2.2.1 </tspan>
<tspan x="10" y="1722">  │ ├── escape-string-regexp@1.0.5 </tspan>
<tspan x="10" y="1738">  │ ├── has-ansi@2.0.0 </tspan>
<tspan x="10" y="1754">  │ ├── strip-ansi@3.0.1 </tspan>
<tspan x="10" y="1770">  │ └── supports-color@2.0.0 </tspan>
<tspan x="10" y="1786">  ├─┬ commander@2.9.0 </tspan>
<tspan x="10" y="1802">  │ └── graceful-readlink@1.0.1 </tspan>
<tspan x="10" y="1818">  ├─┬ concat-stream@1.6.0 </tspan>
<tspan x="10" y="1834">  │ ├── inherits@2.0.3 </tspan>
<tspan x="10" y="1850">  │ ├─┬ readable-stream@2.2.9 </tspan>
<tspan x="10" y="1866">  │ │ ├── buffer-shims@1.0.0 </tspan>
<tspan x="10" y="1882">  │ │ ├── core-util-is@1.0.2 </tspan>
<tspan x="10" y="1898">  │ │ ├── isarray@1.0.0 </tspan>
<tspan x="10" y="1914">  │ │ ├── process-nextick-args@1.0.7 </tspan>
<tspan x="10" y="1930">  │ │ └── string_decoder@1.0.0 </tspan>
<tspan x="10" y="1946">  │ └── typedarray@0.0.6 </tspan>
<tspan x="10" y="1962">  ├─┬ connect@2.30.2 </tspan>
<tspan x="10" y="1978">  │ ├── basic-auth-connect@1.0.0 </tspan>
<tspan x="10" y="1994">  │ ├─┬ body-parser@1.13.3 </tspan>
<tspan x="10" y="2010">  │ │ ├─┬ debug@2.2.0 </tspan>
<tspan x="10" y="2026">  │ │ │ └── ms@0.7.1 </tspan>
<tspan x="10" y="2042">  │ │ ├── iconv-lite@0.4.11 </tspan>
<tspan x="10" y="2058">  │ │ ├─┬ on-finished@2.3.0 </tspan>
<tspan x="10" y="2074">  │ │ │ └── ee-first@1.1.1 </tspan>
<tspan x="10" y="2090">  │ │ └─┬ raw-body@2.1.7 </tspan>
<tspan x="10" y="2106">  │ │   ├── bytes@2.4.0 </tspan>
<tspan x="10" y="2122">  │ │   └── iconv-lite@0.4.13 </tspan>
<tspan x="10" y="2138">  │ ├── bytes@2.1.0 </tspan>
<tspan x="10" y="2154">  │ ├─┬ compression@1.5.2 </tspan>
<tspan x="10" y="2170">  │ │ ├─┬ accepts@1.2.13 </tspan>
<tspan x="10" y="2186">  │ │ │ └── negotiator@0.5.3 </tspan>
<tspan x="10" y="2202">  │ │ ├── compressible@2.0.10 </tspan>
<tspan x="10" y="2218">  │ │ ├─┬ debug@2.2.0 </tspan>
<tspan x="10" y="2234">  │ │ │ └── ms@0.7.1 </tspan>
<tspan x="10" y="2250">  │ │ └── vary@1.0.1 </tspan>
<tspan x="10" y="2266">  │ ├─┬ connect-timeout@1.6.2 </tspan>
<tspan x="10" y="2282">  │ │ ├── debug@2.2.0 </tspan>
<tspan x="10" y="2298">  │ │ └── ms@0.7.1 </tspan>
<tspan x="10" y="2314">  │ ├── content-type@1.0.2 </tspan>
<tspan x="10" y="2330">  │ ├── cookie@0.1.3 </tspan>
<tspan x="10" y="2346">  │ ├── cookie-parser@1.3.5 </tspan>
<tspan x="10" y="2362">  │ ├── cookie-signature@1.0.6 </tspan>
<tspan x="10" y="2378">  │ ├─┬ csurf@1.8.3 </tspan>
<tspan x="10" y="2394">  │ │ └─┬ csrf@3.0.6 </tspan>
<tspan x="10" y="2410">  │ │   ├── rndm@1.2.0 </tspan>
<tspan x="10" y="2426">  │ │   ├── tsscmp@1.0.5 </tspan>
<tspan x="10" y="2442">  │ │   └─┬ uid-safe@2.1.4 </tspan>
<tspan x="10" y="2458">  │ │     └── random-bytes@1.0.0 </tspan>
<tspan x="10" y="2474">  │ ├─┬ debug@2.2.0 </tspan>
<tspan x="10" y="2490">  │ │ └── ms@0.7.1 </tspan>
<tspan x="10" y="2506">  │ ├── depd@1.0.1 </tspan>
<tspan x="10" y="2522">  │ ├─┬ errorhandler@1.4.3 </tspan>
<tspan x="10" y="2538">  │ │ ├─┬ accepts@1.3.3 </tspan>
<tspan x="10" y="2554">  │ │ │ └── negotiator@0.6.1 </tspan>
<tspan x="10" y="2570">  │ │ └── escape-html@1.0.3 </tspan>
<tspan x="10" y="2586">  │ ├─┬ express-session@1.11.3 </tspan>
<tspan x="10" y="2602">  │ │ ├── crc@3.3.0 </tspan>
<tspan x="10" y="2618">  │ │ ├─┬ debug@2.2.0 </tspan>
<tspan x="10" y="2634">  │ │ │ └── ms@0.7.1 </tspan>
<tspan x="10" y="2650">  │ │ └─┬ uid-safe@2.0.0 </tspan>
<tspan x="10" y="2666">  │ │   └── base64-url@1.2.1 </tspan>
<tspan x="10" y="2682">  │ ├─┬ finalhandler@0.4.0 </tspan>
<tspan x="10" y="2698">  │ │ ├─┬ debug@2.2.0 </tspan>
<tspan x="10" y="2714">  │ │ │ └── ms@0.7.1 </tspan>
<tspan x="10" y="2730">  │ │ ├── escape-html@1.0.2 </tspan>
<tspan x="10" y="2746">  │ │ └── unpipe@1.0.0 </tspan>
<tspan x="10" y="2762">  │ ├── fresh@0.3.0 </tspan>
<tspan x="10" y="2778">  │ ├─┬ http-errors@1.3.1 </tspan>
<tspan x="10" y="2794">  │ │ └── statuses@1.3.1 </tspan>
<tspan x="10" y="2810">  │ ├─┬ method-override@2.3.8 </tspan>
<tspan x="10" y="2826">  │ │ ├─┬ debug@2.6.3 </tspan>
<tspan x="10" y="2842">  │ │ │ └── ms@0.7.2 </tspan>
<tspan x="10" y="2858">  │ │ ├── methods@1.1.2 </tspan>
<tspan x="10" y="2874">  │ │ └── vary@1.1.1 </tspan>
<tspan x="10" y="2890">  │ ├─┬ morgan@1.6.1 </tspan>
<tspan x="10" y="2906">  │ │ ├── basic-auth@1.0.4 </tspan>
<tspan x="10" y="2922">  │ │ └─┬ debug@2.2.0 </tspan>
<tspan x="10" y="2938">  │ │   └── ms@0.7.1 </tspan>
<tspan x="10" y="2954">  │ ├─┬ multiparty@3.3.2 </tspan>
<tspan x="10" y="2970">  │ │ ├─┬ readable-stream@1.1.14 </tspan>
<tspan x="10" y="2986">  │ │ │ ├── isarray@0.0.1 </tspan>
<tspan x="10" y="3002">  │ │ │ └── string_decoder@0.10.31 </tspan>
<tspan x="10" y="3018">  │ │ └─┬ stream-counter@0.2.0 </tspan>
<tspan x="10" y="3034">  │ │   └─┬ readable-stream@1.1.14 </tspan>
<tspan x="10" y="3050">  │ │     ├── isarray@0.0.1 </tspan>
<tspan x="10" y="3066">  │ │     └── string_decoder@0.10.31 </tspan>
<tspan x="10" y="3082">  │ ├── on-headers@1.0.1 </tspan>
<tspan x="10" y="3098">  │ ├── parseurl@1.3.1 </tspan>
<tspan x="10" y="3114">  │ ├── pause@0.1.0 </tspan>
<tspan x="10" y="3130">  │ ├── qs@4.0.0 </tspan>
<tspan x="10" y="3146">  │ ├─┬ response-time@2.3.2 </tspan>
<tspan x="10" y="3162">  │ │ └── depd@1.1.0 </tspan>
<tspan x="10" y="3178">  │ ├─┬ serve-favicon@2.3.2 </tspan>
<tspan x="10" y="3194">  │ │ ├── etag@1.7.0 </tspan>
<tspan x="10" y="3210">  │ │ └── ms@0.7.2 </tspan>
<tspan x="10" y="3226">  │ ├─┬ serve-index@1.7.3 </tspan>
<tspan x="10" y="3242">  │ │ ├── batch@0.5.3 </tspan>
<tspan x="10" y="3258">  │ │ └─┬ debug@2.2.0 </tspan>
<tspan x="10" y="3274">  │ │   └── ms@0.7.1 </tspan>
<tspan x="10" y="3290">  │ ├─┬ serve-static@1.10.3 </tspan>
<tspan x="10" y="3306">  │ │ └─┬ send@0.13.2 </tspan>
<tspan x="10" y="3322">  │ │   ├── debug@2.2.0 </tspan>
<tspan x="10" y="3338">  │ │   ├── depd@1.1.0 </tspan>
<tspan x="10" y="3354">  │ │   ├── destroy@1.0.4 </tspan>
<tspan x="10" y="3370">  │ │   ├── ms@0.7.1 </tspan>
<tspan x="10" y="3386">  │ │   ├── range-parser@1.0.3 </tspan>
<tspan x="10" y="3402">  │ │   └── statuses@1.2.1 </tspan>
<tspan x="10" y="3418">  │ ├─┬ type-is@1.6.15 </tspan>
<tspan x="10" y="3434">  │ │ ├── media-typer@0.3.0 </tspan>
<tspan x="10" y="3450">  │ │ └── mime-types@2.1.15 </tspan>
<tspan x="10" y="3466">  │ ├── utils-merge@1.0.0 </tspan>
<tspan x="10" y="3482">  │ └── vhost@3.0.2 </tspan>
<tspan x="10" y="3498">  ├── core-js@2.4.1 </tspan>
<tspan x="10" y="3514">  ├─┬ debug@2.6.5 </tspan>
<tspan x="10" y="3530">  │ └── ms@0.7.3 </tspan>
<tspan x="10" y="3546">  ├── denodeify@1.2.1 </tspan>
<tspan x="10" y="3562">  ├── event-target-shim@1.1.1 </tspan>
<tspan x="10" y="3578">  ├─┬ fbjs@0.8.12 </tspan>
<tspan x="10" y="3594">  │ ├── core-js@1.2.7 </tspan>
<tspan x="10" y="3610">  │ ├── isomorphic-fetch@2.2.1 </tspan>
<tspan x="10" y="3626">  │ ├── loose-envify@1.3.1 </tspan>
<tspan x="10" y="3642">  │ ├── object-assign@4.1.1 </tspan>
<tspan x="10" y="3658">  │ ├── setimmediate@1.0.5 </tspan>
<tspan x="10" y="3674">  │ └── ua-parser-js@0.7.12 </tspan>
<tspan x="10" y="3690">  ├─┬ fbjs-scripts@0.7.1 </tspan>
<tspan x="10" y="3706">  │ ├── babel-preset-fbjs@1.0.0 </tspan>
<tspan x="10" y="3722">  │ ├── core-js@1.2.7 </tspan>
<tspan x="10" y="3738">  │ ├─┬ cross-spawn@3.0.1 </tspan>
<tspan x="10" y="3754">  │ │ ├─┬ lru-cache@4.0.2 </tspan>
<tspan x="10" y="3770">  │ │ │ ├── pseudomap@1.0.2 </tspan>
<tspan x="10" y="3786">  │ │ │ └── yallist@2.1.2 </tspan>
<tspan x="10" y="3802">  │ │ └─┬ which@1.2.14 </tspan>
<tspan x="10" y="3818">  │ │   └── isexe@2.0.0 </tspan>
<tspan x="10" y="3834">  │ ├─┬ gulp-util@3.0.8 </tspan>
<tspan x="10" y="3850">  │ │ ├── array-differ@1.0.0 </tspan>
<tspan x="10" y="3866">  │ │ ├── array-uniq@1.0.3 </tspan>
<tspan x="10" y="3882">  │ │ ├── beeper@1.1.1 </tspan>
<tspan x="10" y="3898">  │ │ ├── dateformat@2.0.0 </tspan>
<tspan x="10" y="3914">  │ │ ├─┬ fancy-log@1.3.0 </tspan>
<tspan x="10" y="3930">  │ │ │ └── time-stamp@1.0.1 </tspan>
<tspan x="10" y="3946">  │ │ ├─┬ gulplog@1.0.0 </tspan>
<tspan x="10" y="3962">  │ │ │ └── glogg@1.0.0 </tspan>
<tspan x="10" y="3978">  │ │ ├─┬ has-gulplog@0.1.0 </tspan>
<tspan x="10" y="3994">  │ │ │ └── sparkles@1.0.0 </tspan>
<tspan x="10" y="4010">  │ │ ├── lodash._reescape@3.0.0 </tspan>
<tspan x="10" y="4026">  │ │ ├── lodash._reevaluate@3.0.0 </tspan>
<tspan x="10" y="4042">  │ │ ├── lodash._reinterpolate@3.0.0 </tspan>
<tspan x="10" y="4058">  │ │ ├─┬ lodash.template@3.6.2 </tspan>
<tspan x="10" y="4074">  │ │ │ ├── lodash._basecopy@3.0.1 </tspan>
<tspan x="10" y="4090">  │ │ │ ├── lodash._basetostring@3.0.1 </tspan>
<tspan x="10" y="4106">  │ │ │ ├── lodash._basevalues@3.0.0 </tspan>
<tspan x="10" y="4122">  │ │ │ ├── lodash._isiterateecall@3.0.9 </tspan>
<tspan x="10" y="4138">  │ │ │ ├─┬ lodash.escape@3.2.0 </tspan>
<tspan x="10" y="4154">  │ │ │ │ └── lodash._root@3.0.1 </tspan>
<tspan x="10" y="4170">  │ │ │ ├─┬ lodash.keys@3.1.2 </tspan>
<tspan x="10" y="4186">  │ │ │ │ ├── lodash._getnative@3.9.1 </tspan>
<tspan x="10" y="4202">  │ │ │ │ ├── lodash.isarguments@3.1.0 </tspan>
<tspan x="10" y="4218">  │ │ │ │ └── lodash.isarray@3.0.4 </tspan>
<tspan x="10" y="4234">  │ │ │ ├── lodash.restparam@3.6.1 </tspan>
<tspan x="10" y="4250">  │ │ │ └── lodash.templatesettings@3.1.1 </tspan>
<tspan x="10" y="4266">  │ │ ├─┬ multipipe@0.1.2 </tspan>
<tspan x="10" y="4282">  │ │ │ └─┬ duplexer2@0.0.2 </tspan>
<tspan x="10" y="4298">  │ │ │   └─┬ readable-stream@1.1.14 </tspan>
<tspan x="10" y="4314">  │ │ │     ├── isarray@0.0.1 </tspan>
<tspan x="10" y="4330">  │ │ │     └── string_decoder@0.10.31 </tspan>
<tspan x="10" y="4346">  │ │ ├── object-assign@3.0.0 </tspan>
<tspan x="10" y="4362">  │ │ ├── replace-ext@0.0.1 </tspan>
<tspan x="10" y="4378">  │ │ └─┬ vinyl@0.5.3 </tspan>
<tspan x="10" y="4394">  │ │   ├── clone@1.0.2 </tspan>
<tspan x="10" y="4410">  │ │   └── clone-stats@0.0.1 </tspan>
<tspan x="10" y="4426">  │ └── through2@2.0.3 </tspan>
<tspan x="10" y="4442">  ├─┬ form-data@2.1.4 </tspan>
<tspan x="10" y="4458">  │ ├── asynckit@0.4.0 </tspan>
<tspan x="10" y="4474">  │ ├─┬ combined-stream@1.0.5 </tspan>
<tspan x="10" y="4490">  │ │ └── delayed-stream@1.0.0 </tspan>
<tspan x="10" y="4506">  │ └─┬ mime-types@2.1.15 </tspan>
<tspan x="10" y="4522">  │   └── mime-db@1.27.0 </tspan>
<tspan x="10" y="4538">  ├─┬ fs-extra@0.26.7 </tspan>
<tspan x="10" y="4554">  │ ├── jsonfile@2.4.0 </tspan>
<tspan x="10" y="4570">  │ └── klaw@1.3.1 </tspan>
<tspan x="10" y="4586">  ├─┬ glob@5.0.15 </tspan>
<tspan x="10" y="4602">  │ ├─┬ inflight@1.0.6 </tspan>
<tspan x="10" y="4618">  │ │ └── wrappy@1.0.2 </tspan>
<tspan x="10" y="4634">  │ └── once@1.4.0 </tspan>
<tspan x="10" y="4650">  ├── graceful-fs@4.1.11 </tspan>
<tspan x="10" y="4666">  ├── image-size@0.3.5 </tspan>
<tspan x="10" y="4682">  ├── immutable@3.7.6 </tspan>
<tspan x="10" y="4698">  ├── imurmurhash@0.1.4 </tspan>
<tspan x="10" y="4714">  ├─┬ inquirer@0.12.0 </tspan>
<tspan x="10" y="4730">  │ ├── ansi-escapes@1.4.0 </tspan>
<tspan x="10" y="4746">  │ ├── ansi-regex@2.1.1 </tspan>
<tspan x="10" y="4762">  │ ├─┬ cli-cursor@1.0.2 </tspan>
<tspan x="10" y="4778">  │ │ └─┬ restore-cursor@1.0.1 </tspan>
<tspan x="10" y="4794">  │ │   ├── exit-hook@1.1.1 </tspan>
<tspan x="10" y="4810">  │ │   └── onetime@1.1.0 </tspan>
<tspan x="10" y="4826">  │ ├── cli-width@2.1.0 </tspan>
<tspan x="10" y="4842">  │ ├── figures@1.7.0 </tspan>
<tspan x="10" y="4858">  │ ├─┬ readline2@1.0.1 </tspan>
<tspan x="10" y="4874">  │ │ ├── code-point-at@1.1.0 </tspan>
<tspan x="10" y="4890">  │ │ ├─┬ is-fullwidth-code-point@1.0.0 </tspan>
<tspan x="10" y="4906">  │ │ │ └── number-is-nan@1.0.1 </tspan>
<tspan x="10" y="4922">  │ │ └── mute-stream@0.0.5 </tspan>
<tspan x="10" y="4938">  │ ├── run-async@0.1.0 </tspan>
<tspan x="10" y="4954">  │ ├── rx-lite@3.1.2 </tspan>
<tspan x="10" y="4970">  │ ├── string-width@1.0.2 </tspan>
<tspan x="10" y="4986">  │ └── through@2.3.8 </tspan>
<tspan x="10" y="5002">  ├─┬ jest-haste-map@19.0.0 </tspan>
<tspan x="10" y="5018">  │ ├─┬ fb-watchman@2.0.0 </tspan>
<tspan x="10" y="5034">  │ │ └── bser@2.0.0 </tspan>
<tspan x="10" y="5050">  │ ├─┬ micromatch@2.3.11 </tspan>
<tspan x="10" y="5066">  │ │ ├─┬ arr-diff@2.0.0 </tspan>
<tspan x="10" y="5082">  │ │ │ └── arr-flatten@1.0.3 </tspan>
<tspan x="10" y="5098">  │ │ ├── array-unique@0.2.1 </tspan>
<tspan x="10" y="5114">  │ │ ├─┬ braces@1.8.5 </tspan>
<tspan x="10" y="5130">  │ │ │ ├─┬ expand-range@1.8.2 </tspan>
<tspan x="10" y="5146">  │ │ │ │ └─┬ fill-range@2.2.3 </tspan>
<tspan x="10" y="5162">  │ │ │ │   ├── is-number@2.1.0 </tspan>
<tspan x="10" y="5178">  │ │ │ │   ├── isobject@2.1.0 </tspan>
<tspan x="10" y="5194">  │ │ │ │   ├── randomatic@1.1.6 </tspan>
<tspan x="10" y="5210">  │ │ │ │   └── repeat-string@1.6.1 </tspan>
<tspan x="10" y="5226">  │ │ │ ├── preserve@0.2.0 </tspan>
<tspan x="10" y="5242">  │ │ │ └── repeat-element@1.1.2 </tspan>
<tspan x="10" y="5258">  │ │ ├─┬ expand-brackets@0.1.5 </tspan>
<tspan x="10" y="5274">  │ │ │ └── is-posix-bracket@0.1.1 </tspan>
<tspan x="10" y="5290">  │ │ ├── extglob@0.3.2 </tspan>
<tspan x="10" y="5306">  │ │ ├── filename-regex@2.0.0 </tspan>
<tspan x="10" y="5322">  │ │ ├── is-extglob@1.0.0 </tspan>
<tspan x="10" y="5338">  │ │ ├── is-glob@2.0.1 </tspan>
<tspan x="10" y="5354">  │ │ ├─┬ kind-of@3.2.0 </tspan>
<tspan x="10" y="5370">  │ │ │ └── is-buffer@1.1.5 </tspan>
<tspan x="10" y="5386">  │ │ ├─┬ normalize-path@2.1.1 </tspan>
<tspan x="10" y="5402">  │ │ │ └── remove-trailing-separator@1.0.1 </tspan>
<tspan x="10" y="5418">  │ │ ├─┬ object.omit@2.0.1 </tspan>
<tspan x="10" y="5434">  │ │ │ ├─┬ for-own@0.1.5 </tspan>
<tspan x="10" y="5450">  │ │ │ │ └── for-in@1.0.2 </tspan>
<tspan x="10" y="5466">  │ │ │ └── is-extendable@0.1.1 </tspan>
<tspan x="10" y="5482">  │ │ ├─┬ parse-glob@3.0.4 </tspan>
<tspan x="10" y="5498">  │ │ │ ├─┬ glob-base@0.3.0 </tspan>
<tspan x="10" y="5514">  │ │ │ │ └── glob-parent@2.0.0 </tspan>
<tspan x="10" y="5530">  │ │ │ └── is-dotfile@1.0.2 </tspan>
<tspan x="10" y="5546">  │ │ └─┬ regex-cache@0.4.3 </tspan>
<tspan x="10" y="5562">  │ │   ├── is-equal-shallow@0.1.3 </tspan>
<tspan x="10" y="5578">  │ │   └── is-primitive@2.0.0 </tspan>
<tspan x="10" y="5594">  │ └─┬ sane@1.5.0 </tspan>
<tspan x="10" y="5610">  │   ├─┬ anymatch@1.3.0 </tspan>
<tspan x="10" y="5626">  │   │ └── arrify@1.0.1 </tspan>
<tspan x="10" y="5642">  │   └─┬ fb-watchman@1.9.2 </tspan>
<tspan x="10" y="5658">  │     └── bser@1.0.2 </tspan>
<tspan x="10" y="5674">  ├─┬ joi@6.10.1 </tspan>
<tspan x="10" y="5690">  │ ├── hoek@2.16.3 </tspan>
<tspan x="10" y="5706">  │ ├── isemail@1.2.0 </tspan>
<tspan x="10" y="5722">  │ ├── moment@2.18.1 </tspan>
<tspan x="10" y="5738">  │ └── topo@1.1.0 </tspan>
<tspan x="10" y="5754">  ├─┬ json-stable-stringify@1.0.1 </tspan>
<tspan x="10" y="5770">  │ └── jsonify@0.0.0 </tspan>
<tspan x="10" y="5786">  ├── json5@0.4.0 </tspan>
<tspan x="10" y="5802">  ├── left-pad@1.1.3 </tspan>
<tspan x="10" y="5818">  ├── lodash@4.17.4 </tspan>
<tspan x="10" y="5834">  ├── mime@1.3.4 </tspan>
<tspan x="10" y="5850">  ├─┬ mime-types@2.1.11 </tspan>
<tspan x="10" y="5866">  │ └── mime-db@1.23.0 </tspan>
<tspan x="10" y="5882">  ├── minimist@1.2.0 </tspan>
<tspan x="10" y="5898">  ├─┬ mkdirp@0.5.1 </tspan>
<tspan x="10" y="5914">  │ └── minimist@0.0.8 </tspan>
<tspan x="10" y="5930">  ├─┬ node-fetch@1.6.3 </tspan>
<tspan x="10" y="5946">  │ ├─┬ encoding@0.1.12 </tspan>
<tspan x="10" y="5962">  │ │ └── iconv-lite@0.4.16 </tspan>
<tspan x="10" y="5978">  │ └── is-stream@1.1.0 </tspan>
<tspan x="10" y="5994">  ├─┬ npmlog@2.0.4 </tspan>
<tspan x="10" y="6010">  │ ├── ansi@0.3.1 </tspan>
<tspan x="10" y="6026">  │ ├─┬ are-we-there-yet@1.1.4 </tspan>
<tspan x="10" y="6042">  │ │ └── delegates@1.0.0 </tspan>
<tspan x="10" y="6058">  │ └─┬ gauge@1.2.7 </tspan>
<tspan x="10" y="6074">  │   ├── has-unicode@2.0.1 </tspan>
<tspan x="10" y="6090">  │   ├── lodash.pad@4.5.1 </tspan>
<tspan x="10" y="6106">  │   ├── lodash.padend@4.6.1 </tspan>
<tspan x="10" y="6122">  │   └── lodash.padstart@4.6.1 </tspan>
<tspan x="10" y="6138">  ├── opn@3.0.3 </tspan>
<tspan x="10" y="6154">  ├─┬ optimist@0.6.1 </tspan>
<tspan x="10" y="6170">  │ ├── minimist@0.0.10 </tspan>
<tspan x="10" y="6186">  │ └── wordwrap@0.0.3 </tspan>
<tspan x="10" y="6202">  ├─┬ plist@1.2.0 </tspan>
<tspan x="10" y="6218">  │ ├── base64-js@0.0.8 </tspan>
<tspan x="10" y="6234">  │ ├── util-deprecate@1.0.2 </tspan>
<tspan x="10" y="6250">  │ ├─┬ xmlbuilder@4.0.0 </tspan>
<tspan x="10" y="6266">  │ │ └── lodash@3.10.1 </tspan>
<tspan x="10" y="6282">  │ └── xmldom@0.1.27 </tspan>
<tspan x="10" y="6298">  ├─┬ promise@7.1.1 </tspan>
<tspan x="10" y="6314">  │ └── asap@2.0.5 </tspan>
<tspan x="10" y="6330">  ├── react-clone-referenced-element@1.0.1 </tspan>
<tspan x="10" y="6346">  ├─┬ react-devtools-core@2.1.0 </tspan>
<tspan x="10" y="6362">  │ └─┬ ws@2.3.1 </tspan>
<tspan x="10" y="6378">  │   └── ultron@1.1.0 </tspan>
<tspan x="10" y="6394">  ├── react-timer-mixin@0.13.3 </tspan>
<tspan x="10" y="6410">  ├─┬ react-transform-hmr@1.0.4 </tspan>
<tspan x="10" y="6426">  │ ├─┬ global@4.3.2 </tspan>
<tspan x="10" y="6442">  │ │ ├─┬ min-document@2.19.0 </tspan>
<tspan x="10" y="6458">  │ │ │ └── dom-walk@0.1.1 </tspan>
<tspan x="10" y="6474">  │ │ └── process@0.5.2 </tspan>
<tspan x="10" y="6490">  │ └─┬ react-proxy@1.1.8 </tspan>
<tspan x="10" y="6506">  │   └── react-deep-force-update@1.0.1 </tspan>
<tspan x="10" y="6522">  ├── rebound@0.0.13 </tspan>
<tspan x="10" y="6538">  ├── regenerator-runtime@0.9.6 </tspan>
<tspan x="10" y="6554">  ├─┬ request@2.81.0 </tspan>
<tspan x="10" y="6570">  │ ├── aws-sign2@0.6.0 </tspan>
<tspan x="10" y="6586">  │ ├── aws4@1.6.0 </tspan>
<tspan x="10" y="6602">  │ ├── caseless@0.12.0 </tspan>
<tspan x="10" y="6618">  │ ├── extend@3.0.0 </tspan>
<tspan x="10" y="6634">  │ ├── forever-agent@0.6.1 </tspan>
<tspan x="10" y="6650">  │ ├─┬ har-validator@4.2.1 </tspan>
<tspan x="10" y="6666">  │ │ ├─┬ ajv@4.11.7 </tspan>
<tspan x="10" y="6682">  │ │ │ └── co@4.6.0 </tspan>
<tspan x="10" y="6698">  │ │ └── har-schema@1.0.5 </tspan>
<tspan x="10" y="6714">  │ ├─┬ hawk@3.1.3 </tspan>
<tspan x="10" y="6730">  │ │ ├── boom@2.10.1 </tspan>
<tspan x="10" y="6746">  │ │ ├── cryptiles@2.0.5 </tspan>
<tspan x="10" y="6762">  │ │ └── sntp@1.0.9 </tspan>
<tspan x="10" y="6778">  │ ├─┬ http-signature@1.1.1 </tspan>
<tspan x="10" y="6794">  │ │ ├── assert-plus@0.2.0 </tspan>
<tspan x="10" y="6810">  │ │ ├─┬ jsprim@1.4.0 </tspan>
<tspan x="10" y="6826">  │ │ │ ├── assert-plus@1.0.0 </tspan>
<tspan x="10" y="6842">  │ │ │ ├── extsprintf@1.0.2 </tspan>
<tspan x="10" y="6858">  │ │ │ ├── json-schema@0.2.3 </tspan>
<tspan x="10" y="6874">  │ │ │ └── verror@1.3.6 </tspan>
<tspan x="10" y="6890">  │ │ └─┬ sshpk@1.13.0 </tspan>
<tspan x="10" y="6906">  │ │   ├── asn1@0.2.3 </tspan>
<tspan x="10" y="6922">  │ │   ├── assert-plus@1.0.0 </tspan>
<tspan x="10" y="6938">  │ │   ├── bcrypt-pbkdf@1.0.1 </tspan>
<tspan x="10" y="6954">  │ │   ├─┬ dashdash@1.14.1 </tspan>
<tspan x="10" y="6970">  │ │   │ └── assert-plus@1.0.0 </tspan>
<tspan x="10" y="6986">  │ │   ├── ecc-jsbn@0.1.1 </tspan>
<tspan x="10" y="7002">  │ │   ├─┬ getpass@0.1.7 </tspan>
<tspan x="10" y="7018">  │ │   │ └── assert-plus@1.0.0 </tspan>
<tspan x="10" y="7034">  │ │   ├── jodid25519@1.0.2 </tspan>
<tspan x="10" y="7050">  │ │   ├── jsbn@0.1.1 </tspan>
<tspan x="10" y="7066">  │ │   └── tweetnacl@0.14.5 </tspan>
<tspan x="10" y="7082">  │ ├── is-typedarray@1.0.0 </tspan>
<tspan x="10" y="7098">  │ ├── isstream@0.1.2 </tspan>
<tspan x="10" y="7114">  │ ├── json-stringify-safe@5.0.1 </tspan>
<tspan x="10" y="7130">  │ ├── oauth-sign@0.8.2 </tspan>
<tspan x="10" y="7146">  │ ├── performance-now@0.2.0 </tspan>
<tspan x="10" y="7162">  │ ├── qs@6.4.0 </tspan>
<tspan x="10" y="7178">  │ ├── safe-buffer@5.0.1 </tspan>
<tspan x="10" y="7194">  │ ├── stringstream@0.0.5 </tspan>
<tspan x="10" y="7210">  │ ├─┬ tough-cookie@2.3.2 </tspan>
<tspan x="10" y="7226">  │ │ └── punycode@1.4.1 </tspan>
<tspan x="10" y="7242">  │ ├── tunnel-agent@0.6.0 </tspan>
<tspan x="10" y="7258">  │ └── uuid@3.0.1 </tspan>
<tspan x="10" y="7274">  ├─┬ rimraf@2.6.1 </tspan>
<tspan x="10" y="7290">  │ └─┬ glob@7.1.1 </tspan>
<tspan x="10" y="7306">  │   └── fs.realpath@1.0.0 </tspan>
<tspan x="10" y="7322">  ├─┬ sane@1.4.1 </tspan>
<tspan x="10" y="7338">  │ ├─┬ exec-sh@0.2.0 </tspan>
<tspan x="10" y="7354">  │ │ └── merge@1.2.0 </tspan>
<tspan x="10" y="7370">  │ ├─┬ fb-watchman@1.9.2 </tspan>
<tspan x="10" y="7386">  │ │ └── bser@1.0.2 </tspan>
<tspan x="10" y="7402">  │ ├─┬ walker@1.0.7 </tspan>
<tspan x="10" y="7418">  │ │ └─┬ makeerror@1.0.11 </tspan>
<tspan x="10" y="7434">  │ │   └── tmpl@1.0.4 </tspan>
<tspan x="10" y="7450">  │ └── watch@0.10.0 </tspan>
<tspan x="10" y="7466">  ├── semver@5.3.0 </tspan>
<tspan x="10" y="7482">  ├─┬ shell-quote@1.6.1 </tspan>
<tspan x="10" y="7498">  │ ├── array-filter@0.0.1 </tspan>
<tspan x="10" y="7514">  │ ├── array-map@0.0.0 </tspan>
<tspan x="10" y="7530">  │ └── array-reduce@0.0.0 </tspan>
<tspan x="10" y="7546">  ├── source-map@0.5.6 </tspan>
<tspan x="10" y="7562">  ├── stacktrace-parser@0.1.4 </tspan>
<tspan x="10" y="7578">  ├─┬ temp@0.8.3 </tspan>
<tspan x="10" y="7594">  │ ├── os-tmpdir@1.0.2 </tspan>
<tspan x="10" y="7610">  │ └── rimraf@2.2.8 </tspan>
<tspan x="10" y="7626">  ├── throat@3.0.0 </tspan>
<tspan x="10" y="7642">  ├─┬ uglify-js@2.8.22 </tspan>
<tspan x="10" y="7658">  │ ├── uglify-to-browserify@1.0.2 </tspan>
<tspan x="10" y="7674">  │ └─┬ yargs@3.10.0 </tspan>
<tspan x="10" y="7690">  │   ├── camelcase@1.2.1 </tspan>
<tspan x="10" y="7706">  │   ├─┬ cliui@2.1.0 </tspan>
<tspan x="10" y="7722">  │   │ ├─┬ center-align@0.1.3 </tspan>
<tspan x="10" y="7738">  │   │ │ ├─┬ align-text@0.1.4 </tspan>
<tspan x="10" y="7754">  │   │ │ │ └── longest@1.0.1 </tspan>
<tspan x="10" y="7770">  │   │ │ └── lazy-cache@1.0.4 </tspan>
<tspan x="10" y="7786">  │   │ ├── right-align@0.1.3 </tspan>
<tspan x="10" y="7802">  │   │ └── wordwrap@0.0.2 </tspan>
<tspan x="10" y="7818">  │   └── window-size@0.1.0 </tspan>
<tspan x="10" y="7834">  ├── whatwg-fetch@1.1.1 </tspan>
<tspan x="10" y="7850">  ├── wordwrap@1.0.0 </tspan>
<tspan x="10" y="7866">  ├─┬ worker-farm@1.3.1 </tspan>
<tspan x="10" y="7882">  │ ├─┬ errno@0.1.4 </tspan>
<tspan x="10" y="7898">  │ │ └── prr@0.0.0 </tspan>
<tspan x="10" y="7914">  │ └── xtend@4.0.1 </tspan>
<tspan x="10" y="7930">  ├─┬ write-file-atomic@1.3.4 </tspan>
<tspan x="10" y="7946">  │ └── slide@1.1.6 </tspan>
<tspan x="10" y="7962">  ├─┬ ws@1.1.4 </tspan>
<tspan x="10" y="7978">  │ ├── options@0.0.6 </tspan>
<tspan x="10" y="7994">  │ └── ultron@1.0.2 </tspan>
<tspan x="10" y="8010">  ├─┬ xcode@0.8.9 </tspan>
<tspan x="10" y="8026">  │ ├── node-uuid@1.4.7 </tspan>
<tspan x="10" y="8042">  │ ├── pegjs@0.9.0 </tspan>
<tspan x="10" y="8058">  │ └─┬ simple-plist@0.1.4 </tspan>
<tspan x="10" y="8074">  │   ├─┬ bplist-creator@0.0.4 </tspan>
<tspan x="10" y="8090">  │   │ └── stream-buffers@0.2.6 </tspan>
<tspan x="10" y="8106">  │   └── bplist-parser@0.0.6 </tspan>
<tspan x="10" y="8122">  ├─┬ xmldoc@0.4.0 </tspan>
<tspan x="10" y="8138">  │ └── sax@1.1.6 </tspan>
<tspan x="10" y="8154">  ├── xpipe@1.0.5 </tspan>
<tspan x="10" y="8170">  └─┬ yargs@6.6.0 </tspan>
<tspan x="10" y="8186">    ├── camelcase@3.0.0 </tspan>
<tspan x="10" y="8202">    ├─┬ cliui@3.2.0 </tspan>
<tspan x="10" y="8218">    │ └── wrap-ansi@2.1.0 </tspan>
<tspan x="10" y="8234">    ├── decamelize@1.2.0 </tspan>
<tspan x="10" y="8250">    ├── get-caller-file@1.0.2 </tspan>
<tspan x="10" y="8266">    ├─┬ os-locale@1.4.0 </tspan>
<tspan x="10" y="8282">    │ └─┬ lcid@1.0.0 </tspan>
<tspan x="10" y="8298">    │   └── invert-kv@1.0.0 </tspan>
<tspan x="10" y="8314">    ├─┬ read-pkg-up@1.0.1 </tspan>
<tspan x="10" y="8330">    │ ├─┬ find-up@1.1.2 </tspan>
<tspan x="10" y="8346">    │ │ ├── path-exists@2.1.0 </tspan>
<tspan x="10" y="8362">    │ │ └─┬ pinkie-promise@2.0.1 </tspan>
<tspan x="10" y="8378">    │ │   └── pinkie@2.0.4 </tspan>
<tspan x="10" y="8394">    │ └─┬ read-pkg@1.1.0 </tspan>
<tspan x="10" y="8410">    │   ├─┬ load-json-file@1.1.0 </tspan>
<tspan x="10" y="8426">    │   │ ├─┬ parse-json@2.2.0 </tspan>
<tspan x="10" y="8442">    │   │ │ └─┬ error-ex@1.3.1 </tspan>
<tspan x="10" y="8458">    │   │ │   └── is-arrayish@0.2.1 </tspan>
<tspan x="10" y="8474">    │   │ ├── pify@2.3.0 </tspan>
<tspan x="10" y="8490">    │   │ └─┬ strip-bom@2.0.0 </tspan>
<tspan x="10" y="8506">    │   │   └── is-utf8@0.2.1 </tspan>
<tspan x="10" y="8522">    │   ├─┬ normalize-package-data@2.3.8 </tspan>
<tspan x="10" y="8538">    │   │ ├── hosted-git-info@2.4.2 </tspan>
<tspan x="10" y="8554">    │   │ ├─┬ is-builtin-module@1.0.0 </tspan>
<tspan x="10" y="8570">    │   │ │ └── builtin-modules@1.1.1 </tspan>
<tspan x="10" y="8586">    │   │ └─┬ validate-npm-package-license@3.0.1 </tspan>
<tspan x="10" y="8602">    │   │   ├─┬ spdx-correct@1.0.2 </tspan>
<tspan x="10" y="8618">    │   │   │ └── spdx-license-ids@1.2.2 </tspan>
<tspan x="10" y="8634">    │   │   └── spdx-expression-parse@1.0.4 </tspan>
<tspan x="10" y="8650">    │   └── path-type@1.1.0 </tspan>
<tspan x="10" y="8666">    ├── require-directory@2.1.1 </tspan>
<tspan x="10" y="8682">    ├── require-main-filename@1.0.1 </tspan>
<tspan x="10" y="8698">    ├── set-blocking@2.0.0 </tspan>
<tspan x="10" y="8714">    ├── which-module@1.0.0 </tspan>
<tspan x="10" y="8730">    ├── y18n@3.2.1 </tspan>
<tspan x="10" y="8746">    └─┬ yargs-parser@4.2.1 </tspan>
<tspan x="10" y="8762">      └── camelcase@3.0.0</tspan>
</text>
</svg>
